<svg width="404" height="393" viewBox="0 0 404 393" fill="none" xmlns="http://www.w3.org/2000/svg">
<g clip-path="url(#clip0)">
<path d="M48.192 206.31L70.0314 188.502L74.0314 218.502L62.6837 213.148L48.192 206.31Z" fill="#3A1504"/>
<path d="M253.531 262.352C242.218 292.283 198.268 369.111 143.539 369.559C75.1275 370.119 52.9813 312.879 54.9206 267.015C56.4721 230.323 66.3675 197.687 70.0314 188.502M70.0314 188.502L48.192 206.31L74.0314 218.502L70.0314 188.502Z" stroke="#3A1504" stroke-width="3"/>
<path d="M175.806 165.263L175.938 167.306C174.297 169.064 173.477 172.55 173.477 177.765C173.477 187.843 174.436 194.391 176.355 197.409L177.915 198.178C177.974 199.042 178.003 199.621 178.003 199.914C178.003 200.426 177.688 200.683 177.058 200.683L177.036 200.639H160.886L160.71 197.892C161.194 197.995 161.443 198.046 161.458 198.046C162.19 198.046 162.717 195.841 163.04 191.432V187.411C163.04 184.599 162.805 181.5 162.336 178.117C160.198 181.793 157.488 189.652 154.207 201.693C152.332 197.929 150.698 194.032 149.307 190.004C147.915 185.976 146.523 181.684 145.132 177.128C144.106 181.889 143.594 186.664 143.594 191.454C143.594 194.472 144.876 196.735 147.439 198.244L147.373 200.639H134.871V198.266C138.284 196.508 139.99 188.744 139.99 174.975C139.712 171.532 138.958 169.203 137.727 167.987V165.175L154.514 165.241L154.492 167.57C153.862 168.61 153.547 169.408 153.547 169.965C153.547 171.591 153.95 173.458 154.756 175.568C155.547 178.058 156.169 179.889 156.624 181.061L161.216 170.91C160.879 169.503 160.081 168.551 158.821 168.053L158.799 165.219L175.806 165.263Z" fill="#3A1504"/>
<path d="M201.272 165.087H201.602C210.039 165.087 215.869 168.266 219.092 174.623C220.425 177.772 221.091 180.534 221.091 182.907C221.091 188.034 218.638 192.86 213.73 197.387C210.083 199.76 205.93 200.946 201.272 200.946H199.294C187.678 199.745 181.628 193.732 181.145 182.907C181.145 175.978 184.946 170.558 192.549 166.647C195.566 165.607 198.474 165.087 201.272 165.087ZM198.372 196.881C198.518 196.911 198.672 196.925 198.833 196.925C200.298 196.925 201.895 195.731 203.623 193.344C205.352 190.956 206.619 187.792 207.424 183.852C207.878 181.728 208.105 179.735 208.105 177.875C208.105 176.293 207.856 174.447 207.358 172.338C206.86 170.229 205.813 169.042 204.216 168.778C204.041 168.749 203.872 168.734 203.711 168.734C202.275 168.734 200.693 169.928 198.965 172.316C197.236 174.689 195.962 177.853 195.142 181.808C194.688 183.932 194.46 185.924 194.46 187.785C194.46 189.367 194.709 191.212 195.208 193.322C195.706 195.431 196.76 196.618 198.372 196.881Z" fill="#733A39"/>
<path d="M239.787 186.356C239.787 193.944 241.069 197.738 243.633 197.738C246.518 197.738 248.284 194.56 248.928 188.202V181.984C248.928 173.034 247.163 168.559 243.633 168.559H243.259C241.472 168.559 240.315 171.591 239.787 177.655V186.356ZM231.965 165.263L244.841 165.021C250.422 165.607 254.604 167.892 257.388 171.876C259.468 175.333 260.508 178.842 260.508 182.401V182.775C260.508 189.821 257.241 195.446 250.708 199.65C248.657 200.309 246.804 200.639 245.149 200.639H233.349V200.661L225.989 200.639V197.958C226.501 197.812 226.889 197.372 227.153 196.64L227.922 194.223C228.537 190.531 228.845 188.056 228.845 186.796C228.845 181.713 228.567 177.494 228.01 174.14C227.629 172.323 227.322 170.822 227.087 169.635C226.633 168.683 226.135 168.112 225.593 167.921V165.263H231.965Z" fill="#C66D58"/>
<path d="M278.458 179.787C280.669 178.307 282.947 177.567 285.291 177.567C287.576 177.567 289.62 178.454 291.421 180.226C291.949 181.002 292.212 181.852 292.212 182.775C292.212 184.284 291.399 186.195 289.773 188.51C287.444 186.562 285.423 185.36 283.709 184.906C282.61 184.657 281.607 184.533 280.699 184.533C279.776 184.533 279.073 184.621 278.589 184.796L278.721 190.268C278.721 195.292 280.684 197.855 284.61 197.958C286.031 197.855 287.144 195.578 287.95 191.125L297.815 190.773C297.654 195.387 295.281 198.727 290.696 200.792L266.087 200.639H265.318V197.958C265.787 197.812 266.138 197.46 266.373 196.903C267.515 192.04 268.086 187.367 268.086 182.885C268.086 177.919 267.464 173.173 266.219 168.646C266.028 168.28 265.728 168.024 265.318 167.877V165.197C276.919 165.167 283.504 165.153 285.071 165.153H285.709C293.384 166.002 297.222 168.288 297.222 172.008V172.624L287.664 175.348C286.888 170.763 285.569 168.471 283.709 168.471H283.094C280.413 168.471 278.853 171.635 278.414 177.963L278.458 179.787Z" fill="#BB844E"/>
<path d="M148.714 232.038C148.934 237.868 149.842 241.61 151.438 243.266V245.639H135.838V243.266C137.229 241.889 137.925 237.494 137.925 230.082V228.522C137.94 227.833 137.947 227.167 137.947 226.522C137.947 219.535 137.215 214.936 135.75 212.724L135.706 210.219L151.351 210.329L151.438 212.768C149.827 213.69 148.904 217.265 148.67 223.49C149.959 224.384 151.233 224.999 152.493 225.336C153.416 225.541 154.075 225.651 154.471 225.666C154.441 219.206 153.709 214.892 152.273 212.724L152.229 210.219L167.874 210.329L167.962 212.768C166.072 213.852 165.127 218.708 165.127 227.335C165.127 236.007 166.072 241.317 167.962 243.266V245.639H152.361V243.266C153.68 241.962 154.368 238.175 154.427 231.906C153.562 232.272 152.522 232.455 151.307 232.455C150.018 232.455 149.153 232.316 148.714 232.038Z" fill="#4B6D67"/>
<path d="M188.231 238.981C190.458 240.709 192.64 241.786 194.779 242.211H195.328C198.61 242.211 200.338 238.527 200.514 231.159V228.983C200.514 220.297 199.144 214.928 196.405 212.877L196.317 210.636L208.929 210.768L208.951 213.405C206.871 214.152 205.831 218.722 205.831 227.116V229.906C205.831 233.1 206.52 235.297 207.897 236.498L209.017 237.992C204.93 243.266 199.642 245.902 193.153 245.902H191.571C188.495 245.727 185.096 245.023 181.376 243.793C179.398 243.207 177.523 242.255 175.751 240.937C176.351 238.505 176.652 234.887 176.652 230.082V228.522C176.666 227.863 176.674 227.218 176.674 226.588C176.674 219.85 175.941 215.375 174.476 213.163L174.432 210.658L190.077 210.768L190.165 213.207C188.275 214.291 187.33 219.074 187.33 227.555C187.33 232.536 187.631 236.344 188.231 238.981Z" fill="#3C474C"/>
<path d="M253.929 210.263L254.06 212.306C252.42 214.064 251.599 217.55 251.599 222.765C251.599 232.843 252.559 239.391 254.478 242.409L256.038 243.178C256.097 244.042 256.126 244.621 256.126 244.914C256.126 245.426 255.811 245.683 255.181 245.683L255.159 245.639H239.009L238.833 242.892C239.317 242.995 239.566 243.046 239.58 243.046C240.313 243.046 240.84 240.841 241.162 236.432V232.411C241.162 229.599 240.928 226.5 240.459 223.117C238.321 226.793 235.611 234.652 232.329 246.693C230.454 242.929 228.821 239.032 227.43 235.004C226.038 230.976 224.646 226.684 223.255 222.128C222.229 226.889 221.717 231.664 221.717 236.454C221.717 239.472 222.998 241.735 225.562 243.244L225.496 245.639H212.993V243.266C216.407 241.508 218.113 233.744 218.113 219.975C217.835 216.532 217.08 214.203 215.85 212.987V210.175L232.637 210.241L232.615 212.57C231.985 213.61 231.67 214.408 231.67 214.965C231.67 216.591 232.073 218.458 232.879 220.568C233.67 223.058 234.292 224.889 234.746 226.061L239.339 215.91C239.002 214.503 238.203 213.551 236.944 213.053L236.922 210.219L253.929 210.263Z" fill="#3A1504"/>
<path d="M279.734 225.446C279.251 222.516 278.504 219.293 277.493 215.778C277.141 214.855 276.914 214.394 276.812 214.394C276.621 214.394 276.35 215.448 275.999 217.558C275.72 219.081 275.376 220.817 274.966 222.765C276.27 223.834 277.859 224.728 279.734 225.446ZM273.45 229.555C273.084 231.181 272.63 233.129 272.088 235.399C271.692 237.348 271.494 239.376 271.494 241.486V241.793C271.494 242.482 271.707 242.936 272.132 243.156L272.154 245.639H261.343L261.233 243.156C262.259 242.848 263.291 241.852 264.331 240.167C266.382 236.652 267.979 232.587 269.121 227.973C268.843 227.841 268.469 227.636 268.001 227.357C267.429 227.035 266.931 226.874 266.507 226.874C265.774 226.874 265.108 227.57 264.507 228.961C262.559 228.463 261.475 227.438 261.255 225.885C261.504 221.813 263.723 219.748 267.913 219.689C269.275 219.777 270.293 219.96 270.967 220.238C271.187 219.169 271.355 217.982 271.472 216.679L271.143 210.329L288.545 210.438C288.53 211.435 288.523 212.277 288.523 212.965C288.523 220.861 289.812 228.083 292.39 234.63C294.251 239.948 295.532 242.606 296.236 242.606L296.367 245.639H279.932V243.244C280.518 242.731 280.811 241.398 280.811 239.245C280.811 238.937 280.803 238.615 280.789 238.278C280.789 235.641 280.635 232.968 280.327 230.258C280.02 230.302 279.522 230.324 278.833 230.324C277.515 230.324 276.182 230.17 274.834 229.862C274.146 229.73 273.684 229.628 273.45 229.555Z" fill="#733A39"/>
<path d="M316.449 212.438C315.614 213.024 315.196 213.69 315.196 214.438C315.196 214.613 315.218 214.804 315.262 215.009V215.163C315.262 217.521 317.364 220.099 321.568 222.897C323.443 224.406 325.37 226.632 327.347 229.577V226.632C327.347 218.708 326.095 213.983 323.59 212.46L323.568 210.153L336.29 210.197L336.422 212.68C333.419 212.68 331.917 218.898 331.917 231.334C331.917 238.102 332.921 242.094 334.928 243.31V245.639H322.887L322.755 243.617C323.194 242.431 323.414 241.493 323.414 240.805C322.257 236.571 319.159 232.946 314.12 229.928C311.439 227.731 309.776 225.944 309.132 224.567L309.066 225.094V234.477C309.168 239.208 310.728 242.321 313.746 243.815L313.68 245.639H300.738L300.76 242.958C303.031 242.797 304.166 238.087 304.166 228.83V226.632C304.166 219.748 303.053 214.994 300.826 212.372L300.848 210.197L316.361 210.175L316.449 212.438Z" fill="#C66D58"/>
<path d="M358.514 225.446C358.031 222.516 357.284 219.293 356.273 215.778C355.921 214.855 355.694 214.394 355.592 214.394C355.401 214.394 355.13 215.448 354.779 217.558C354.5 219.081 354.156 220.817 353.746 222.765C355.05 223.834 356.639 224.728 358.514 225.446ZM352.23 229.555C351.864 231.181 351.41 233.129 350.868 235.399C350.472 237.348 350.274 239.376 350.274 241.486V241.793C350.274 242.482 350.487 242.936 350.911 243.156L350.933 245.639H340.123L340.013 243.156C341.038 242.848 342.071 241.852 343.111 240.167C345.162 236.652 346.759 232.587 347.901 227.973C347.623 227.841 347.249 227.636 346.781 227.357C346.209 227.035 345.711 226.874 345.286 226.874C344.554 226.874 343.888 227.57 343.287 228.961C341.339 228.463 340.255 227.438 340.035 225.885C340.284 221.813 342.503 219.748 346.693 219.689C348.055 219.777 349.073 219.96 349.747 220.238C349.967 219.169 350.135 217.982 350.252 216.679L349.923 210.329L367.325 210.438C367.31 211.435 367.303 212.277 367.303 212.965C367.303 220.861 368.592 228.083 371.17 234.63C373.031 239.948 374.312 242.606 375.015 242.606L375.147 245.639H358.712V243.244C359.298 242.731 359.591 241.398 359.591 239.245C359.591 238.937 359.583 238.615 359.569 238.278C359.569 235.641 359.415 232.968 359.107 230.258C358.8 230.302 358.302 230.324 357.613 230.324C356.295 230.324 354.962 230.17 353.614 229.862C352.926 229.73 352.464 229.628 352.23 229.555Z" fill="#BB844E"/>
<path d="M273.031 152.502L264.031 128.002L276.427 129.873L290.531 132.002L273.031 152.502Z" fill="#3A1504"/>
<path d="M73.5314 172.002C86.4255 113.304 128.485 10.7102 205.572 16.8709C282.658 23.0316 282.083 111.492 273.031 152.502M273.031 152.502L264.031 128.002L290.531 132.002L273.031 152.502Z" stroke="#3A1504" stroke-width="3"/>
</g>
<defs>
<clipPath id="clip0">
<rect width="404" height="393" fill="white"/>
</clipPath>
</defs>
</svg>
